<svg width="56" height="64" viewBox="0 0 56 64" fill="none" xmlns="http://www.w3.org/2000/svg">
<path d="M56 28C56 43.464 40.5 43 28 56.5C11 79 0 43.464 0 28C0 12.536 12.536 0 28 0C43.464 0 56 12.536 56 28Z" fill="#D5F5CA"/>
<path d="M56 28C56 43.464 40.5 43 28 56.5C11 79 0 43.464 0 28C0 12.536 12.536 0 28 0C43.464 0 56 12.536 56 28Z" fill="url(#paint0_linear)"/>
<rect x="16" y="18" width="24" height="3" fill="white"/>
<rect x="16" y="25" width="24" height="3" fill="white"/>
<rect x="16" y="32" width="24" height="3" fill="white"/>
<circle cx="48.5" cy="56.5" r="7.5" fill="#D5F5CA"/>
<circle cx="48.5" cy="56.5" r="7.5" fill="url(#paint1_linear)"/>
<defs>
<linearGradient id="paint0_linear" x1="51" y1="111" x2="20.5" y2="32" gradientUnits="userSpaceOnUse">
<stop stop-color="#378723"/>
<stop offset="1" stop-color="#87E070" stop-opacity="0"/>
</linearGradient>
<linearGradient id="paint1_linear" x1="54.6607" y1="75.1115" x2="48.167" y2="55.9594" gradientUnits="userSpaceOnUse">
<stop stop-color="#378723"/>
<stop offset="1" stop-color="#87E070" stop-opacity="0"/>
</linearGradient>
</defs>
</svg>
