<svg width="1440" height="612" viewBox="0 0 1440 612" fill="none" xmlns="http://www.w3.org/2000/svg">
<g opacity="0.6">
<path opacity="0.1" d="M17.3792 569.294C14.9767 553.054 2.2512 542.801 -12.8446 545.061C-27.9403 547.321 -37.1464 560.858 -34.7439 577.097C-32.3415 593.336 -19.616 603.589 -4.52022 601.329C10.5755 599.069 19.7816 585.533 17.3792 569.294ZM3.77873 571.33C4.69546 577.526 0.733437 583.216 -7.02806 584.378C-14.7896 585.54 -20.2268 581.257 -21.1435 575.061C-22.0603 568.864 -18.0982 563.175 -10.3367 562.013C-2.57523 560.851 2.862 565.133 3.77873 571.33ZM-44.839 500.989L-38.0742 546.715L-25.0434 544.764L-27.2035 530.163L9.61018 524.651L7.16557 508.127L-29.6482 513.639L-31.8083 499.038L-44.839 500.989ZM-26.6757 458.459C-29.402 454.79 -33.4735 452.852 -38.0307 453.534C-47.43 454.941 -51.2374 467.087 -49.3408 479.907C-48.4556 485.89 -46.3073 492.048 -42.9115 497.291L-31.1774 490.511C-33.9458 486.557 -35.8122 481.813 -36.3917 477.896C-37.0029 473.765 -36.1637 470.581 -33.6003 470.198C-31.7489 469.92 -30.3883 471.246 -29.9669 474.095L-28.1861 486.132L-16.081 484.319L-18.0725 470.858C-18.4729 468.151 -18.0875 465.837 -15.8089 465.496C-12.747 465.037 -10.7434 468.741 -9.97414 473.941C-9.33138 478.285 -9.54852 483.705 -10.7651 488.765L1.56861 491.942C3.55825 484.728 3.83638 477.26 2.84589 470.565C0.85437 457.104 -6.35406 446.753 -16.0381 448.203C-21.3786 449.002 -25.3192 452.868 -26.6757 458.459ZM-41.4019 418.447L-39.874 428.775L-55.1834 431.067L-52.7388 447.591L-2.89427 440.129L-6.55066 415.414C-8.50003 402.237 -15.9384 394.76 -27.8298 396.54C-38.8668 398.193 -43.2037 406.268 -41.4019 418.447ZM-10.4178 389.274L-12.8624 372.75L-62.7069 380.212L-60.2623 396.737L-10.4178 389.274ZM-18.1311 418.312L-17.0879 425.364L-28.1249 427.016L-29.1681 419.965C-29.6634 416.617 -28.8217 413.943 -25.0477 413.378C-21.2026 412.802 -18.6264 414.965 -18.1311 418.312ZM-45.974 329.489C-48.7821 325.76 -52.8325 323.964 -57.6034 324.678C-65.8633 325.915 -69.5804 333.752 -67.7575 346.074L-64.0168 371.358L-14.1723 363.896L-18.1132 337.258C-20.0415 324.224 -26.7416 317.801 -35.5712 319.123C-41.3389 319.986 -44.7916 323.707 -45.974 329.489ZM-54.7124 353.075L-55.7661 345.953C-56.1876 343.104 -55.0243 341.619 -52.6033 341.257C-50.1823 340.894 -48.7821 341.995 -48.3606 344.844L-47.3069 351.967L-54.7124 353.075ZM-29.7463 339.8L-28.366 349.131L-36.1987 350.304L-37.5791 340.973C-37.99 338.195 -36.9085 336.65 -34.3451 336.266C-31.7816 335.883 -30.1573 337.023 -29.7463 339.8ZM-60.5107 289.283L-58.9829 299.611L-74.2922 301.902L-71.8476 318.427L-22.0031 310.964L-25.6595 286.249C-27.6089 273.073 -35.0472 265.596 -46.9387 267.376C-57.9757 269.028 -62.3126 277.103 -60.5107 289.283ZM-29.5266 260.11L-31.9713 243.586L-81.8158 251.048L-79.3711 267.572L-29.5266 260.11ZM-37.24 289.148L-36.1968 296.199L-47.2338 297.852L-48.277 290.8C-48.7722 287.453 -47.9305 284.779 -44.1566 284.214C-40.3114 283.638 -37.7352 285.8 -37.24 289.148Z" fill="#208359"/>
<path opacity="0.1" d="M418.542 509.235C416.14 492.996 403.414 482.743 388.319 485.003C373.223 487.263 364.017 500.799 366.419 517.038C368.822 533.278 381.547 543.53 396.643 541.27C411.739 539.01 420.945 525.474 418.542 509.235ZM404.942 511.271C405.859 517.468 401.897 523.157 394.135 524.319C386.374 525.481 380.936 521.199 380.02 515.002C379.103 508.806 383.065 503.116 390.826 501.954C398.588 500.792 404.025 505.075 404.942 511.271ZM356.324 440.93L363.089 486.656L376.12 484.705L373.96 470.104L410.773 464.593L408.329 448.069L371.515 453.58L369.355 438.979L356.324 440.93ZM374.487 398.4C371.761 394.732 367.69 392.793 363.132 393.475C353.733 394.882 349.926 407.028 351.822 419.849C352.707 425.831 354.856 431.989 358.252 437.232L369.986 430.452C367.217 426.498 365.351 421.754 364.771 417.837C364.16 413.706 364.999 410.523 367.563 410.139C369.414 409.862 370.775 411.187 371.196 414.036L372.977 426.073L385.082 424.261L383.091 410.799C382.69 408.093 383.076 405.778 385.354 405.437C388.416 404.979 390.42 408.683 391.189 413.882C391.832 418.227 391.615 423.647 390.398 428.707L402.732 431.883C404.721 424.669 404.999 417.202 404.009 410.507C402.017 397.045 394.809 386.694 385.125 388.144C379.784 388.944 375.844 392.81 374.487 398.4ZM359.761 358.389L361.289 368.716L345.98 371.008L348.424 387.533L398.269 380.07L394.612 355.355C392.663 342.179 385.225 334.702 373.333 336.482C362.296 338.134 357.959 346.209 359.761 358.389ZM390.745 329.216L388.301 312.692L338.456 320.154L340.901 336.678L390.745 329.216ZM383.032 358.254L384.075 365.305L373.038 366.957L371.995 359.906C371.5 356.559 372.341 353.884 376.115 353.319C379.961 352.744 382.537 354.906 383.032 358.254ZM355.189 269.431C352.381 265.702 348.331 263.905 343.56 264.62C335.3 265.856 331.583 273.693 333.406 286.015L337.146 311.3L386.991 303.837L383.05 277.199C381.122 264.165 374.422 257.742 365.592 259.064C359.824 259.928 356.371 263.648 355.189 269.431ZM346.451 293.017L345.397 285.894C344.976 283.045 346.139 281.561 348.56 281.198C350.981 280.836 352.381 281.936 352.803 284.785L353.856 291.908L346.451 293.017ZM371.417 279.742L372.797 289.072L364.964 290.245L363.584 280.914C363.173 278.137 364.255 276.592 366.818 276.208C369.381 275.824 371.006 276.964 371.417 279.742ZM340.652 229.224L342.18 239.552L326.871 241.844L329.315 258.368L379.16 250.906L375.504 226.191C373.554 213.014 366.116 205.537 354.224 207.317C343.187 208.97 338.851 217.045 340.652 229.224ZM371.636 200.051L369.192 183.527L319.347 190.989L321.792 207.514L371.636 200.051ZM363.923 229.089L364.966 236.141L353.929 237.793L352.886 230.742C352.391 227.394 353.233 224.72 357.007 224.155C360.852 223.579 363.428 225.742 363.923 229.089Z" fill="#208359"/>
<path opacity="0.1" d="M819.705 449.176C817.303 432.937 804.577 422.684 789.482 424.944C774.386 427.204 765.18 440.74 767.582 456.979C769.985 473.219 782.71 483.471 797.806 481.211C812.902 478.951 822.108 465.415 819.705 449.176ZM806.105 451.212C807.022 457.409 803.06 463.098 795.298 464.26C787.537 465.422 782.099 461.14 781.183 454.943C780.266 448.747 784.228 443.057 791.99 441.895C799.751 440.733 805.188 445.015 806.105 451.212ZM757.487 380.871L764.252 426.597L777.283 424.646L775.123 410.045L811.936 404.534L809.492 388.01L772.678 393.521L770.518 378.92L757.487 380.871ZM775.651 338.341C772.924 334.672 768.853 332.734 764.296 333.416C754.896 334.823 751.089 346.969 752.985 359.789C753.871 365.772 756.019 371.93 759.415 377.173L771.149 370.393C768.38 366.439 766.514 361.695 765.935 357.778C765.323 353.647 766.163 350.464 768.726 350.08C770.577 349.803 771.938 351.128 772.359 353.977L774.14 366.014L786.245 364.202L784.254 350.74C783.853 348.034 784.239 345.719 786.517 345.378C789.579 344.919 791.583 348.624 792.352 353.823C792.995 358.168 792.778 363.588 791.561 368.647L803.895 371.824C805.884 364.61 806.163 357.143 805.172 350.448C803.181 336.986 795.972 326.635 786.288 328.085C780.948 328.885 777.007 332.751 775.651 338.341ZM760.924 298.33L762.452 308.657L747.143 310.949L749.587 327.473L799.432 320.011L795.776 295.296C793.826 282.12 786.388 274.642 774.496 276.423C763.459 278.075 759.122 286.15 760.924 298.33ZM791.908 269.157L789.464 252.632L739.619 260.095L742.064 276.619L791.908 269.157ZM784.195 298.195L785.238 305.246L774.201 306.898L773.158 299.847C772.663 296.499 773.505 293.825 777.279 293.26C781.124 292.685 783.7 294.847 784.195 298.195ZM756.352 209.372C753.544 205.642 749.494 203.846 744.723 204.561C736.463 205.797 732.746 213.634 734.569 225.956L738.309 251.241L788.154 243.778L784.213 217.14C782.285 204.106 775.585 197.683 766.755 199.005C760.987 199.869 757.535 203.589 756.352 209.372ZM747.614 232.958L746.56 225.835C746.139 222.986 747.302 221.501 749.723 221.139C752.144 220.777 753.544 221.877 753.966 224.726L755.019 231.849L747.614 232.958ZM772.58 219.683L773.96 229.013L766.128 230.186L764.747 220.855C764.336 218.078 765.418 216.532 767.981 216.149C770.545 215.765 772.169 216.905 772.58 219.683ZM741.815 169.165L743.343 179.493L728.034 181.785L730.479 198.309L780.323 190.847L776.667 166.132C774.717 152.955 767.279 145.478 755.388 147.258C744.351 148.911 740.014 156.986 741.815 169.165ZM772.8 139.992L770.355 123.468L720.51 130.93L722.955 147.454L772.8 139.992ZM765.086 169.03L766.129 176.081L755.092 177.734L754.049 170.683C753.554 167.335 754.396 164.661 758.17 164.096C762.015 163.52 764.591 165.683 765.086 169.03Z" fill="#208359"/>
<path opacity="0.1" d="M1220.87 389.117C1218.47 372.878 1205.74 362.625 1190.64 364.885C1175.55 367.145 1166.34 380.681 1168.75 396.921C1171.15 413.16 1183.87 423.413 1198.97 421.153C1214.06 418.893 1223.27 405.357 1220.87 389.117ZM1207.27 391.153C1208.18 397.35 1204.22 403.039 1196.46 404.201C1188.7 405.363 1183.26 401.081 1182.35 394.885C1181.43 388.688 1185.39 382.999 1193.15 381.837C1200.91 380.675 1206.35 384.957 1207.27 391.153ZM1158.65 320.812L1165.42 366.539L1178.45 364.588L1176.29 349.987L1213.1 344.475L1210.65 327.951L1173.84 333.462L1171.68 318.861L1158.65 320.812ZM1176.81 278.283C1174.09 274.614 1170.02 272.675 1165.46 273.358C1156.06 274.765 1152.25 286.91 1154.15 299.731C1155.03 305.714 1157.18 311.872 1160.58 317.114L1172.31 310.334C1169.54 306.381 1167.68 301.637 1167.1 297.719C1166.49 293.588 1167.33 290.405 1169.89 290.021C1171.74 289.744 1173.1 291.069 1173.52 293.918L1175.3 305.955L1187.41 304.143L1185.42 290.681C1185.02 287.975 1185.4 285.66 1187.68 285.319C1190.74 284.861 1192.75 288.565 1193.52 293.764C1194.16 298.109 1193.94 303.529 1192.72 308.589L1205.06 311.766C1207.05 304.552 1207.33 297.084 1206.34 290.389C1204.34 276.928 1197.14 266.577 1187.45 268.027C1182.11 268.826 1178.17 272.692 1176.81 278.283ZM1162.09 238.271L1163.62 248.599L1148.31 250.891L1150.75 267.415L1200.6 259.953L1196.94 235.238C1194.99 222.061 1187.55 214.584 1175.66 216.364C1164.62 218.017 1160.29 226.092 1162.09 238.271ZM1193.07 209.098L1190.63 192.574L1140.78 200.036L1143.23 216.56L1193.07 209.098ZM1185.36 238.136L1186.4 245.187L1175.36 246.84L1174.32 239.788C1173.83 236.441 1174.67 233.767 1178.44 233.202C1182.29 232.626 1184.86 234.789 1185.36 238.136ZM1157.52 149.313C1154.71 145.584 1150.66 143.788 1145.89 144.502C1137.63 145.739 1133.91 153.575 1135.73 165.897L1139.47 191.182L1189.32 183.72L1185.38 157.082C1183.45 144.048 1176.75 137.625 1167.92 138.947C1162.15 139.81 1158.7 143.53 1157.52 149.313ZM1148.78 172.899L1147.72 165.776C1147.3 162.927 1148.47 161.443 1150.89 161.08C1153.31 160.718 1154.71 161.819 1155.13 164.668L1156.18 171.79L1148.78 172.899ZM1173.74 159.624L1175.12 168.955L1167.29 170.127L1165.91 160.797C1165.5 158.019 1166.58 156.474 1169.14 156.09C1171.71 155.706 1173.33 156.846 1173.74 159.624ZM1142.98 109.107L1144.51 119.434L1129.2 121.726L1131.64 138.25L1181.49 130.788L1177.83 106.073C1175.88 92.8965 1168.44 85.4194 1156.55 87.1997C1145.51 88.8521 1141.18 96.9272 1142.98 109.107ZM1173.96 79.9336L1171.52 63.4094L1121.67 70.8717L1124.12 87.3959L1173.96 79.9336ZM1166.25 108.972L1167.29 116.023L1156.26 117.675L1155.21 110.624C1154.72 107.276 1155.56 104.602 1159.33 104.037C1163.18 103.462 1165.75 105.624 1166.25 108.972Z" fill="#208359"/>
<path opacity="0.1" d="M117.67 554.279C115.268 538.04 102.542 527.787 87.4463 530.047C72.3505 532.307 63.1444 545.843 65.5469 562.082C67.9494 578.322 80.6748 588.574 95.7706 586.314C110.866 584.054 120.072 570.518 117.67 554.279ZM104.07 556.315C104.986 562.512 101.024 568.201 93.2628 569.363C85.5013 570.525 80.064 566.243 79.1473 560.046C78.2306 553.85 82.1926 548.16 89.9541 546.998C97.7156 545.836 103.153 550.118 104.07 556.315ZM55.4518 485.974L62.2166 531.7L75.2474 529.749L73.0873 515.148L109.901 509.637L107.456 493.113L70.6427 498.624L68.4826 484.023L55.4518 485.974ZM73.6151 443.444C70.8889 439.776 66.8173 437.837 62.2601 438.519C52.8609 439.926 49.0534 452.072 50.9501 464.892C51.8352 470.875 53.9835 477.033 57.3794 482.276L69.1134 475.496C66.345 471.542 64.4786 466.798 63.8991 462.881C63.288 458.75 64.1271 455.567 66.6905 455.183C68.5419 454.906 69.9025 456.231 70.324 459.08L72.1047 471.117L84.2098 469.305L82.2183 455.843C81.8179 453.137 82.2033 450.822 84.4819 450.481C87.5438 450.022 89.5475 453.727 90.3167 458.926C90.9595 463.271 90.7423 468.691 89.5257 473.751L101.859 476.927C103.849 469.713 104.127 462.246 103.137 455.551C101.145 442.089 93.9368 431.738 84.2527 433.188C78.9122 433.988 74.9716 437.854 73.6151 443.444ZM58.8889 403.433L60.4168 413.76L45.1074 416.052L47.5521 432.576L97.3966 425.114L93.7402 400.399C91.7908 387.223 84.3525 379.746 72.461 381.526C61.424 383.178 57.0871 391.253 58.8889 403.433ZM89.873 374.26L87.4284 357.736L37.5839 365.198L40.0285 381.722L89.873 374.26ZM82.1597 403.298L83.2029 410.349L72.1659 412.001L71.1227 404.95C70.6275 401.603 71.4692 398.928 75.2431 398.363C79.0883 397.788 81.6645 399.95 82.1597 403.298ZM54.3168 314.475C51.5088 310.745 47.4583 308.949 42.6875 309.664C34.4275 310.9 30.7104 318.737 32.5333 331.059L36.274 356.344L86.1185 348.881L82.1776 322.243C80.2493 309.209 73.5492 302.786 64.7196 304.108C58.9519 304.972 55.4992 308.692 54.3168 314.475ZM45.5785 338.061L44.5248 330.938C44.1033 328.089 45.2665 326.605 47.6875 326.242C50.1086 325.88 51.5087 326.98 51.9302 329.829L52.9839 336.952L45.5785 338.061ZM70.5445 324.786L71.9249 334.116L64.0921 335.289L62.7118 325.958C62.3008 323.181 63.3823 321.635 65.9458 321.252C68.5092 320.868 70.1335 322.008 70.5445 324.786ZM39.7801 274.268L41.308 284.596L25.9986 286.888L28.4432 303.412L78.2877 295.95L74.6313 271.235C72.6819 258.058 65.2436 250.581 53.3521 252.361C42.3151 254.014 37.9782 262.089 39.7801 274.268ZM70.7642 245.095L68.3196 228.571L18.4751 236.033L20.9197 252.558L70.7642 245.095ZM63.0509 274.133L64.094 281.185L53.057 282.837L52.0139 275.786C51.5186 272.438 52.3603 269.764 56.1343 269.199C59.9794 268.623 62.5556 270.786 63.0509 274.133Z" fill="#208359"/>
<path opacity="0.1" d="M518.833 494.22C516.431 477.981 503.705 467.728 488.609 469.988C473.514 472.248 464.308 485.784 466.71 502.024C469.113 518.263 481.838 528.516 496.934 526.256C512.03 523.996 521.236 510.46 518.833 494.22ZM505.233 496.256C506.149 502.453 502.187 508.142 494.426 509.304C486.664 510.466 481.227 506.184 480.31 499.988C479.394 493.791 483.356 488.102 491.117 486.94C498.879 485.778 504.316 490.06 505.233 496.256ZM456.615 425.915L463.38 471.642L476.411 469.691L474.25 455.09L511.064 449.578L508.62 433.054L471.806 438.566L469.646 423.964L456.615 425.915ZM474.778 383.386C472.052 379.717 467.98 377.778 463.423 378.461C454.024 379.868 450.217 392.013 452.113 404.834C452.998 410.817 455.147 416.975 458.543 422.218L470.277 415.437C467.508 411.484 465.642 406.74 465.062 402.822C464.451 398.691 465.29 395.508 467.854 395.124C469.705 394.847 471.066 396.172 471.487 399.021L473.268 411.058L485.373 409.246L483.381 395.785C482.981 393.078 483.366 390.763 485.645 390.422C488.707 389.964 490.711 393.668 491.48 398.867C492.123 403.212 491.905 408.632 490.689 413.692L503.023 416.869C505.012 409.655 505.29 402.187 504.3 395.492C502.308 382.031 495.1 371.68 485.416 373.13C480.075 373.929 476.135 377.795 474.778 383.386ZM460.052 343.374L461.58 353.702L446.271 355.994L448.715 372.518L498.56 365.056L494.903 340.341C492.954 327.164 485.516 319.687 473.624 321.467C462.587 323.12 458.25 331.195 460.052 343.374ZM491.036 314.201L488.592 297.677L438.747 305.139L441.192 321.663L491.036 314.201ZM483.323 343.239L484.366 350.29L473.329 351.943L472.286 344.891C471.791 341.544 472.632 338.87 476.406 338.305C480.251 337.729 482.828 339.892 483.323 343.239ZM455.48 254.416C452.672 250.687 448.621 248.891 443.851 249.605C435.591 250.842 431.874 258.678 433.696 271L437.437 296.285L487.282 288.823L483.341 262.185C481.412 249.151 474.712 242.728 465.883 244.05C460.115 244.913 456.662 248.633 455.48 254.416ZM446.742 278.002L445.688 270.879C445.266 268.031 446.43 266.546 448.851 266.183C451.272 265.821 452.672 266.922 453.093 269.771L454.147 276.893L446.742 278.002ZM471.708 264.727L473.088 274.058L465.255 275.23L463.875 265.9C463.464 263.122 464.545 261.577 467.109 261.193C469.672 260.809 471.297 261.949 471.708 264.727ZM440.943 214.21L442.471 224.537L427.162 226.829L429.606 243.353L479.451 235.891L475.794 211.176C473.845 198 466.407 190.522 454.515 192.303C443.478 193.955 439.141 202.03 440.943 214.21ZM471.927 185.037L469.483 168.512L419.638 175.975L422.083 192.499L471.927 185.037ZM464.214 214.075L465.257 221.126L454.22 222.778L453.177 215.727C452.682 212.379 453.523 209.705 457.297 209.14C461.143 208.565 463.719 210.727 464.214 214.075Z" fill="#208359"/>
<path opacity="0.1" d="M919.996 434.161C917.594 417.922 904.868 407.669 889.773 409.929C874.677 412.189 865.471 425.725 867.873 441.965C870.276 458.204 883.001 468.457 898.097 466.197C913.193 463.937 922.399 450.4 919.996 434.161ZM906.396 436.197C907.313 442.394 903.351 448.083 895.589 449.245C887.828 450.407 882.39 446.125 881.474 439.928C880.557 433.732 884.519 428.043 892.28 426.881C900.042 425.719 905.479 430.001 906.396 436.197ZM857.778 365.856L864.543 411.583L877.574 409.632L875.414 395.031L912.227 389.519L909.783 372.995L872.969 378.506L870.809 363.905L857.778 365.856ZM875.941 323.327C873.215 319.658 869.144 317.719 864.586 318.402C855.187 319.809 851.38 331.954 853.276 344.775C854.161 350.758 856.31 356.915 859.706 362.158L871.44 355.378C868.671 351.425 866.805 346.681 866.225 342.763C865.614 338.632 866.453 335.449 869.017 335.065C870.868 334.788 872.229 336.113 872.65 338.962L874.431 350.999L886.536 349.187L884.545 335.725C884.144 333.019 884.53 330.704 886.808 330.363C889.87 329.905 891.874 333.609 892.643 338.808C893.286 343.153 893.069 348.573 891.852 353.633L904.186 356.81C906.175 349.596 906.454 342.128 905.463 335.433C903.471 321.972 896.263 311.621 886.579 313.071C881.239 313.87 877.298 317.736 875.941 323.327ZM861.215 283.315L862.743 293.643L847.434 295.935L849.878 312.459L899.723 304.996L896.066 280.281C894.117 267.105 886.679 259.628 874.787 261.408C863.75 263.06 859.413 271.136 861.215 283.315ZM892.199 254.142L889.755 237.618L839.91 245.08L842.355 261.604L892.199 254.142ZM884.486 283.18L885.529 290.231L874.492 291.884L873.449 284.832C872.954 281.485 873.795 278.811 877.569 278.246C881.415 277.67 883.991 279.832 884.486 283.18ZM856.643 194.357C853.835 190.628 849.785 188.832 845.014 189.546C836.754 190.783 833.037 198.619 834.86 210.941L838.6 236.226L888.445 228.764L884.504 202.126C882.576 189.092 875.876 182.669 867.046 183.991C861.278 184.854 857.826 188.574 856.643 194.357ZM847.905 217.943L846.851 210.82C846.43 207.971 847.593 206.487 850.014 206.124C852.435 205.762 853.835 206.863 854.257 209.712L855.31 216.834L847.905 217.943ZM872.871 204.668L874.251 213.999L866.418 215.171L865.038 205.841C864.627 203.063 865.709 201.518 868.272 201.134C870.835 200.75 872.46 201.89 872.871 204.668ZM842.106 154.151L843.634 164.478L828.325 166.77L830.769 183.294L880.614 175.832L876.958 151.117C875.008 137.94 867.57 130.463 855.678 132.244C844.641 133.896 840.305 141.971 842.106 154.151ZM873.09 124.978L870.646 108.453L820.801 115.916L823.246 132.44L873.09 124.978ZM865.377 154.016L866.42 161.067L855.383 162.719L854.34 155.668C853.845 152.32 854.687 149.646 858.461 149.081C862.306 148.506 864.882 150.668 865.377 154.016Z" fill="#208359"/>
<path opacity="0.1" d="M1321.16 374.103C1318.76 357.863 1306.03 347.611 1290.94 349.871C1275.84 352.131 1266.63 365.667 1269.04 381.906C1271.44 398.145 1284.16 408.398 1299.26 406.138C1314.36 403.878 1323.56 390.342 1321.16 374.103ZM1307.56 376.139C1308.48 382.335 1304.51 388.025 1296.75 389.187C1288.99 390.349 1283.55 386.066 1282.64 379.87C1281.72 373.673 1285.68 367.984 1293.44 366.822C1301.2 365.66 1306.64 369.942 1307.56 376.139ZM1258.94 305.798L1265.71 351.524L1278.74 349.573L1276.58 334.972L1313.39 329.461L1310.95 312.936L1274.13 318.448L1271.97 303.847L1258.94 305.798ZM1277.1 263.268C1274.38 259.599 1270.31 257.661 1265.75 258.343C1256.35 259.75 1252.54 271.896 1254.44 284.716C1255.32 290.699 1257.47 296.857 1260.87 302.1L1272.6 295.32C1269.83 291.366 1267.97 286.622 1267.39 282.705C1266.78 278.574 1267.62 275.39 1270.18 275.007C1272.03 274.729 1273.39 276.055 1273.81 278.904L1275.59 290.941L1287.7 289.128L1285.71 275.667C1285.31 272.96 1285.69 270.646 1287.97 270.305C1291.03 269.846 1293.04 273.55 1293.81 278.75C1294.45 283.094 1294.23 288.514 1293.02 293.574L1305.35 296.751C1307.34 289.537 1307.62 282.07 1306.63 275.374C1304.63 261.913 1297.43 251.562 1287.74 253.012C1282.4 253.811 1278.46 257.678 1277.1 263.268ZM1262.38 223.256L1263.91 233.584L1248.6 235.876L1251.04 252.4L1300.89 244.938L1297.23 220.223C1295.28 207.046 1287.84 199.569 1275.95 201.35C1264.91 203.002 1260.58 211.077 1262.38 223.256ZM1293.36 194.083L1290.92 177.559L1241.07 185.022L1243.52 201.546L1293.36 194.083ZM1285.65 223.121L1286.69 230.173L1275.66 231.825L1274.61 224.774C1274.12 221.426 1274.96 218.752 1278.73 218.187C1282.58 217.611 1285.15 219.774 1285.65 223.121ZM1257.81 134.299C1255 130.569 1250.95 128.773 1246.18 129.487C1237.92 130.724 1234.2 138.561 1236.02 150.883L1239.76 176.167L1289.61 168.705L1285.67 142.067C1283.74 129.033 1277.04 122.61 1268.21 123.932C1262.44 124.796 1258.99 128.516 1257.81 134.299ZM1249.07 157.884L1248.01 150.762C1247.59 147.913 1248.76 146.428 1251.18 146.066C1253.6 145.703 1255 146.804 1255.42 149.653L1256.47 156.776L1249.07 157.884ZM1274.03 144.609L1275.41 153.94L1267.58 155.113L1266.2 145.782C1265.79 143.004 1266.87 141.459 1269.44 141.075C1272 140.692 1273.62 141.832 1274.03 144.609ZM1243.27 94.092L1244.8 104.42L1229.49 106.712L1231.93 123.236L1281.78 115.773L1278.12 91.0584C1276.17 77.8818 1268.73 70.4048 1256.84 72.1851C1245.8 73.8374 1241.47 81.9126 1243.27 94.092ZM1274.25 64.9189L1271.81 48.3948L1221.96 55.8571L1224.41 72.3812L1274.25 64.9189ZM1266.54 93.957L1267.58 101.008L1256.55 102.661L1255.5 95.6094C1255.01 92.2618 1255.85 89.5877 1259.62 89.0227C1263.47 88.447 1266.04 90.6094 1266.54 93.957Z" fill="#208359"/>
<path opacity="0.1" d="M217.961 539.264C215.558 523.025 202.833 512.772 187.737 515.032C172.641 517.292 163.435 530.828 165.838 547.068C168.24 563.307 180.966 573.56 196.061 571.3C211.157 569.04 220.363 555.503 217.961 539.264ZM204.36 541.3C205.277 547.497 201.315 553.186 193.554 554.348C185.792 555.51 180.355 551.228 179.438 545.032C178.521 538.835 182.483 533.146 190.245 531.984C198.006 530.822 203.444 535.104 204.36 541.3ZM155.743 470.959L162.507 516.686L175.538 514.735L173.378 500.134L210.192 494.622L207.747 478.098L170.934 483.609L168.773 469.008L155.743 470.959ZM173.906 428.43C171.18 424.761 167.108 422.822 162.551 423.505C153.152 424.912 149.344 437.057 151.241 449.878C152.126 455.861 154.274 462.018 157.67 467.261L169.404 460.481C166.636 456.528 164.769 451.784 164.19 447.866C163.579 443.735 164.418 440.552 166.981 440.168C168.833 439.891 170.193 441.216 170.615 444.065L172.396 456.102L184.501 454.29L182.509 440.828C182.109 438.122 182.494 435.807 184.773 435.466C187.835 435.008 189.838 438.712 190.608 443.911C191.25 448.256 191.033 453.676 189.817 458.736L202.15 461.913C204.14 454.699 204.418 447.231 203.428 440.536C201.436 427.075 194.228 416.724 184.544 418.174C179.203 418.973 175.262 422.839 173.906 428.43ZM159.18 388.418L160.708 398.746L145.398 401.038L147.843 417.562L197.687 410.1L194.031 385.385C192.082 372.208 184.643 364.731 172.752 366.511C161.715 368.164 157.378 376.239 159.18 388.418ZM190.164 359.245L187.719 342.721L137.875 350.183L140.319 366.707L190.164 359.245ZM182.451 388.283L183.494 395.334L172.457 396.987L171.414 389.935C170.918 386.588 171.76 383.914 175.534 383.349C179.379 382.773 181.955 384.936 182.451 388.283ZM154.608 299.46C151.8 295.731 147.749 293.935 142.978 294.649C134.718 295.886 131.001 303.722 132.824 316.044L136.565 341.329L186.409 333.867L182.468 307.229C180.54 294.195 173.84 287.772 165.01 289.094C159.243 289.957 155.79 293.677 154.608 299.46ZM145.869 323.046L144.816 315.923C144.394 313.074 145.557 311.59 147.978 311.227C150.399 310.865 151.8 311.966 152.221 314.815L153.275 321.937L145.869 323.046ZM170.835 309.771L172.216 319.102L164.383 320.274L163.003 310.944C162.592 308.166 163.673 306.621 166.237 306.237C168.8 305.853 170.424 306.993 170.835 309.771ZM140.071 259.254L141.599 269.581L126.289 271.873L128.734 288.397L178.579 280.935L174.922 256.22C172.973 243.043 165.534 235.566 153.643 237.347C142.606 238.999 138.269 247.074 140.071 259.254ZM171.055 230.081L168.61 213.556L118.766 221.019L121.211 237.543L171.055 230.081ZM163.342 259.119L164.385 266.17L153.348 267.822L152.305 260.771C151.809 257.423 152.651 254.749 156.425 254.184C160.27 253.609 162.846 255.771 163.342 259.119Z" fill="#208359"/>
<path opacity="0.1" d="M619.124 479.206C616.722 462.966 603.996 452.714 588.9 454.974C573.804 457.234 564.598 470.77 567.001 487.009C569.403 503.248 582.129 513.501 597.225 511.241C612.32 508.981 621.526 495.445 619.124 479.206ZM605.524 481.242C606.44 487.438 602.478 493.128 594.717 494.29C586.955 495.452 581.518 491.169 580.601 484.973C579.685 478.776 583.647 473.087 591.408 471.925C599.17 470.763 604.607 475.045 605.524 481.242ZM556.906 410.901L563.671 456.627L576.701 454.676L574.541 440.075L611.355 434.564L608.91 418.039L572.097 423.551L569.937 408.95L556.906 410.901ZM575.069 368.371C572.343 364.702 568.271 362.764 563.714 363.446C554.315 364.853 550.507 376.999 552.404 389.819C553.289 395.802 555.437 401.96 558.833 407.203L570.567 400.423C567.799 396.469 565.933 391.725 565.353 387.808C564.742 383.677 565.581 380.493 568.145 380.11C569.996 379.832 571.356 381.158 571.778 384.007L573.559 396.044L585.664 394.231L583.672 380.77C583.272 378.063 583.657 375.749 585.936 375.408C588.998 374.949 591.001 378.653 591.771 383.853C592.413 388.197 592.196 393.617 590.98 398.677L603.313 401.854C605.303 394.64 605.581 387.173 604.591 380.477C602.599 367.016 595.391 356.665 585.707 358.115C580.366 358.915 576.426 362.781 575.069 368.371ZM560.343 328.359L561.871 338.687L546.561 340.979L549.006 357.503L598.851 350.041L595.194 325.326C593.245 312.149 585.806 304.672 573.915 306.453C562.878 308.105 558.541 316.18 560.343 328.359ZM591.327 299.186L588.882 282.662L539.038 290.125L541.483 306.649L591.327 299.186ZM583.614 328.224L584.657 335.276L573.62 336.928L572.577 329.877C572.081 326.529 572.923 323.855 576.697 323.29C580.542 322.715 583.118 324.877 583.614 328.224ZM555.771 239.402C552.963 235.672 548.912 233.876 544.141 234.59C535.882 235.827 532.164 243.664 533.987 255.986L537.728 281.27L587.573 273.808L583.632 247.17C581.703 234.136 575.003 227.713 566.174 229.035C560.406 229.899 556.953 233.619 555.771 239.402ZM547.032 262.987L545.979 255.865C545.557 253.016 546.721 251.531 549.142 251.169C551.563 250.806 552.963 251.907 553.384 254.756L554.438 261.879L547.032 262.987ZM571.998 249.713L573.379 259.043L565.546 260.216L564.166 250.885C563.755 248.107 564.836 246.562 567.4 246.178C569.963 245.795 571.588 246.935 571.998 249.713ZM541.234 199.195L542.762 209.523L527.453 211.815L529.897 228.339L579.742 220.876L576.085 196.161C574.136 182.985 566.698 175.508 554.806 177.288C543.769 178.94 539.432 187.016 541.234 199.195ZM572.218 170.022L569.774 153.498L519.929 160.96L522.374 177.484L572.218 170.022ZM564.505 199.06L565.548 206.111L554.511 207.764L553.468 200.712C552.973 197.365 553.814 194.691 557.588 194.126C561.433 193.55 564.01 195.712 564.505 199.06Z" fill="#208359"/>
<path opacity="0.1" d="M1020.29 419.147C1017.88 402.907 1005.16 392.654 990.063 394.914C974.968 397.174 965.761 410.711 968.164 426.95C970.566 443.189 983.292 453.442 998.388 451.182C1013.48 448.922 1022.69 435.386 1020.29 419.147ZM1006.69 421.183C1007.6 427.379 1003.64 433.069 995.88 434.231C988.118 435.393 982.681 431.11 981.764 424.914C980.848 418.717 984.81 413.028 992.571 411.866C1000.33 410.704 1005.77 414.986 1006.69 421.183ZM958.069 350.842L964.834 396.568L977.864 394.617L975.704 380.016L1012.52 374.504L1010.07 357.98L973.26 363.492L971.1 348.891L958.069 350.842ZM976.232 308.312C973.506 304.643 969.434 302.705 964.877 303.387C955.478 304.794 951.67 316.94 953.567 329.76C954.452 335.743 956.601 341.901 959.996 347.144L971.73 340.364C968.962 336.41 967.096 331.666 966.516 327.749C965.905 323.618 966.744 320.434 969.308 320.051C971.159 319.773 972.52 321.099 972.941 323.948L974.722 335.985L986.827 334.172L984.835 320.711C984.435 318.004 984.82 315.69 987.099 315.349C990.161 314.89 992.165 318.594 992.934 323.794C993.577 328.138 993.359 333.558 992.143 338.618L1004.48 341.795C1006.47 334.581 1006.74 327.113 1005.75 320.418C1003.76 306.957 996.554 296.606 986.87 298.056C981.529 298.855 977.589 302.722 976.232 308.312ZM961.506 268.3L963.034 278.628L947.725 280.92L950.169 297.444L1000.01 289.982L996.357 265.267C994.408 252.09 986.97 244.613 975.078 246.393C964.041 248.046 959.704 256.121 961.506 268.3ZM992.49 239.127L990.045 222.603L940.201 230.065L942.646 246.59L992.49 239.127ZM984.777 268.165L985.82 275.217L974.783 276.869L973.74 269.818C973.245 266.47 974.086 263.796 977.86 263.231C981.705 262.655 984.282 264.818 984.777 268.165ZM956.934 179.343C954.126 175.613 950.075 173.817 945.305 174.531C937.045 175.768 933.327 183.605 935.15 195.927L938.891 221.211L988.736 213.749L984.795 187.111C982.866 174.077 976.166 167.654 967.337 168.976C961.569 169.839 958.116 173.56 956.934 179.343ZM948.196 202.928L947.142 195.806C946.72 192.957 947.884 191.472 950.305 191.11C952.726 190.747 954.126 191.848 954.547 194.697L955.601 201.82L948.196 202.928ZM973.162 189.653L974.542 198.984L966.709 200.157L965.329 190.826C964.918 188.048 965.999 186.503 968.563 186.119C971.126 185.736 972.751 186.876 973.162 189.653ZM942.397 139.136L943.925 149.464L928.616 151.756L931.06 168.28L980.905 160.817L977.248 136.102C975.299 122.926 967.861 115.449 955.969 117.229C944.932 118.881 940.595 126.956 942.397 139.136ZM973.381 109.963L970.937 93.4387L921.092 100.901L923.537 117.425L973.381 109.963ZM965.668 139.001L966.711 146.052L955.674 147.705L954.631 140.653C954.136 137.306 954.977 134.632 958.751 134.067C962.596 133.491 965.173 135.653 965.668 139.001Z" fill="#208359"/>
<path opacity="0.1" d="M1421.45 359.088C1419.05 342.849 1406.32 332.596 1391.23 334.856C1376.13 337.116 1366.92 350.652 1369.33 366.891C1371.73 383.131 1384.45 393.383 1399.55 391.123C1414.65 388.863 1423.85 375.327 1421.45 359.088ZM1407.85 361.124C1408.77 367.321 1404.8 373.01 1397.04 374.172C1389.28 375.334 1383.84 371.052 1382.93 364.855C1382.01 358.659 1385.97 352.969 1393.73 351.807C1401.5 350.645 1406.93 354.928 1407.85 361.124ZM1359.23 290.783L1366 336.509L1379.03 334.558L1376.87 319.957L1413.68 314.446L1411.24 297.922L1374.42 303.433L1372.26 288.832L1359.23 290.783ZM1377.4 248.253C1374.67 244.585 1370.6 242.646 1366.04 243.328C1356.64 244.736 1352.83 256.881 1354.73 269.702C1355.62 275.684 1357.76 281.842 1361.16 287.085L1372.89 280.305C1370.13 276.351 1368.26 271.607 1367.68 267.69C1367.07 263.559 1367.91 260.376 1370.47 259.992C1372.32 259.715 1373.68 261.04 1374.1 263.889L1375.88 275.926L1387.99 274.114L1386 260.652C1385.6 257.946 1385.98 255.631 1388.26 255.29C1391.32 254.832 1393.33 258.536 1394.1 263.735C1394.74 268.08 1394.52 273.5 1393.31 278.56L1405.64 281.736C1407.63 274.522 1407.91 267.055 1406.92 260.36C1404.93 246.898 1397.72 236.547 1388.03 237.997C1382.69 238.797 1378.75 242.663 1377.4 248.253ZM1362.67 208.242L1364.2 218.569L1348.89 220.861L1351.33 237.386L1401.18 229.923L1397.52 205.208C1395.57 192.032 1388.13 184.555 1376.24 186.335C1365.2 187.987 1360.87 196.062 1362.67 208.242ZM1393.65 179.069L1391.21 162.545L1341.36 170.007L1343.81 186.531L1393.65 179.069ZM1385.94 208.107L1386.98 215.158L1375.95 216.81L1374.9 209.759C1374.41 206.412 1375.25 203.738 1379.02 203.173C1382.87 202.597 1385.44 204.759 1385.94 208.107ZM1358.1 119.284C1355.29 115.555 1351.24 113.758 1346.47 114.473C1338.21 115.709 1334.49 123.546 1336.31 135.868L1340.05 161.153L1389.9 153.69L1385.96 127.052C1384.03 114.018 1377.33 107.596 1368.5 108.917C1362.73 109.781 1359.28 113.501 1358.1 119.284ZM1349.36 142.87L1348.3 135.747C1347.88 132.898 1349.05 131.414 1351.47 131.051C1353.89 130.689 1355.29 131.789 1355.71 134.638L1356.76 141.761L1349.36 142.87ZM1374.32 129.595L1375.71 138.925L1367.87 140.098L1366.49 130.767C1366.08 127.99 1367.16 126.445 1369.73 126.061C1372.29 125.677 1373.91 126.817 1374.32 129.595ZM1343.56 79.0773L1345.09 89.4049L1329.78 91.6969L1332.22 108.221L1382.07 100.759L1378.41 76.0438C1376.46 62.8672 1369.02 55.3901 1357.13 57.1704C1346.1 58.8228 1341.76 66.8979 1343.56 79.0773ZM1374.54 49.9043L1372.1 33.3801L1322.26 40.8424L1324.7 57.3666L1374.54 49.9043ZM1366.83 78.9423L1367.87 85.9936L1356.84 87.646L1355.79 80.5947C1355.3 77.2471 1356.14 74.573 1359.91 74.008C1363.76 73.4324 1366.34 75.5948 1366.83 78.9423Z" fill="#208359"/>
<path opacity="0.1" d="M318.251 524.25C315.849 508.01 303.123 497.757 288.028 500.018C272.932 502.278 263.726 515.814 266.128 532.053C268.531 548.292 281.256 558.545 296.352 556.285C311.448 554.025 320.654 540.489 318.251 524.25ZM304.651 526.286C305.568 532.482 301.606 538.172 293.844 539.334C286.083 540.496 280.645 536.213 279.729 530.017C278.812 523.82 282.774 518.131 290.536 516.969C298.297 515.807 303.734 520.089 304.651 526.286ZM256.033 455.945L262.798 501.671L275.829 499.72L273.669 485.119L310.482 479.608L308.038 463.083L271.224 468.595L269.064 453.994L256.033 455.945ZM274.197 413.415C271.47 409.746 267.399 407.808 262.842 408.49C253.442 409.897 249.635 422.043 251.532 434.863C252.417 440.846 254.565 447.004 257.961 452.247L269.695 445.467C266.926 441.513 265.06 436.769 264.481 432.852C263.869 428.721 264.709 425.537 267.272 425.154C269.123 424.876 270.484 426.202 270.905 429.051L272.686 441.088L284.791 439.275L282.8 425.814C282.399 423.107 282.785 420.793 285.063 420.452C288.125 419.993 290.129 423.697 290.898 428.897C291.541 433.241 291.324 438.661 290.107 443.721L302.441 446.898C304.431 439.684 304.709 432.217 303.718 425.521C301.727 412.06 294.518 401.709 284.834 403.159C279.494 403.958 275.553 407.825 274.197 413.415ZM259.47 373.403L260.998 383.731L245.689 386.023L248.134 402.547L297.978 395.085L294.322 370.37C292.372 357.193 284.934 349.716 273.042 351.496C262.005 353.149 257.669 361.224 259.47 373.403ZM290.454 344.23L288.01 327.706L238.165 335.169L240.61 351.693L290.454 344.23ZM282.741 373.268L283.784 380.32L272.747 381.972L271.704 374.921C271.209 371.573 272.051 368.899 275.825 368.334C279.67 367.758 282.246 369.921 282.741 373.268ZM254.898 284.446C252.09 280.716 248.04 278.92 243.269 279.634C235.009 280.871 231.292 288.708 233.115 301.03L236.855 326.314L286.7 318.852L282.759 292.214C280.831 279.18 274.131 272.757 265.301 274.079C259.533 274.943 256.081 278.663 254.898 284.446ZM246.16 308.031L245.106 300.909C244.685 298.06 245.848 296.575 248.269 296.213C250.69 295.85 252.09 296.951 252.512 299.8L253.565 306.923L246.16 308.031ZM271.126 294.756L272.506 304.087L264.674 305.26L263.293 295.929C262.882 293.151 263.964 291.606 266.527 291.222C269.091 290.839 270.715 291.979 271.126 294.756ZM240.362 244.239L241.889 254.567L226.58 256.859L229.025 273.383L278.869 265.92L275.213 241.205C273.263 228.029 265.825 220.552 253.934 222.332C242.897 223.984 238.56 232.06 240.362 244.239ZM271.346 215.066L268.901 198.542L219.057 206.004L221.501 222.528L271.346 215.066ZM263.632 244.104L264.675 251.155L253.638 252.808L252.595 245.756C252.1 242.409 252.942 239.735 256.716 239.17C260.561 238.594 263.137 240.756 263.632 244.104Z" fill="#208359"/>
<path opacity="0.1" d="M719.415 464.19C717.012 447.951 704.287 437.698 689.191 439.958C674.095 442.218 664.889 455.755 667.291 471.994C669.694 488.233 682.419 498.486 697.515 496.226C712.611 493.966 721.817 480.43 719.415 464.19ZM705.814 466.227C706.731 472.423 702.769 478.113 695.007 479.275C687.246 480.436 681.809 476.154 680.892 469.958C679.975 463.761 683.937 458.072 691.699 456.91C699.46 455.748 704.897 460.03 705.814 466.227ZM657.196 395.886L663.961 441.612L676.992 439.661L674.832 425.06L711.646 419.548L709.201 403.024L672.387 408.536L670.227 393.935L657.196 395.886ZM675.36 353.356C672.633 349.687 668.562 347.749 664.005 348.431C654.605 349.838 650.798 361.984 652.695 374.804C653.58 380.787 655.728 386.945 659.124 392.188L670.858 385.408C668.09 381.454 666.223 376.71 665.644 372.793C665.033 368.662 665.872 365.478 668.435 365.095C670.286 364.817 671.647 366.143 672.069 368.992L673.849 381.028L685.954 379.216L683.963 365.755C683.562 363.048 683.948 360.734 686.226 360.392C689.288 359.934 691.292 363.638 692.061 368.838C692.704 373.182 692.487 378.602 691.27 383.662L703.604 386.839C705.594 379.625 705.872 372.157 704.881 365.462C702.89 352.001 695.681 341.65 685.997 343.1C680.657 343.899 676.716 347.765 675.36 353.356ZM660.634 313.344L662.161 323.672L646.852 325.964L649.297 342.488L699.141 335.026L695.485 310.311C693.535 297.134 686.097 289.657 674.206 291.437C663.169 293.09 658.832 301.165 660.634 313.344ZM691.618 284.171L689.173 267.647L639.328 275.109L641.773 291.634L691.618 284.171ZM683.904 313.209L684.947 320.261L673.91 321.913L672.867 314.862C672.372 311.514 673.214 308.84 676.988 308.275C680.833 307.699 683.409 309.862 683.904 313.209ZM656.061 224.386C653.253 220.657 649.203 218.861 644.432 219.575C636.172 220.812 632.455 228.649 634.278 240.971L638.019 266.255L687.863 258.793L683.922 232.155C681.994 219.121 675.294 212.698 666.464 214.02C660.696 214.883 657.244 218.604 656.061 224.386ZM647.323 247.972L646.269 240.85C645.848 238.001 647.011 236.516 649.432 236.154C651.853 235.791 653.253 236.892 653.675 239.741L654.729 246.864L647.323 247.972ZM672.289 234.697L673.669 244.028L665.837 245.2L664.456 235.87C664.045 233.092 665.127 231.547 667.69 231.163C670.254 230.78 671.878 231.92 672.289 234.697ZM641.525 184.18L643.053 194.507L627.743 196.799L630.188 213.324L680.032 205.861L676.376 181.146C674.427 167.97 666.988 160.493 655.097 162.273C644.06 163.925 639.723 172 641.525 184.18ZM672.509 155.007L670.064 138.483L620.22 145.945L622.664 162.469L672.509 155.007ZM664.795 184.045L665.839 191.096L654.802 192.749L653.758 185.697C653.263 182.35 654.105 179.676 657.879 179.111C661.724 178.535 664.3 180.697 664.795 184.045Z" fill="#208359"/>
<path opacity="0.1" d="M1120.58 404.132C1118.18 387.893 1105.45 377.64 1090.35 379.9C1075.26 382.16 1066.05 395.696 1068.45 411.935C1070.86 428.175 1083.58 438.427 1098.68 436.167C1113.77 433.907 1122.98 420.371 1120.58 404.132ZM1106.98 406.168C1107.89 412.365 1103.93 418.054 1096.17 419.216C1088.41 420.378 1082.97 416.096 1082.06 409.899C1081.14 403.703 1085.1 398.013 1092.86 396.851C1100.62 395.689 1106.06 399.971 1106.98 406.168ZM1058.36 335.827L1065.12 381.553L1078.16 379.602L1076 365.001L1112.81 359.49L1110.36 342.966L1073.55 348.477L1071.39 333.876L1058.36 335.827ZM1076.52 293.297C1073.8 289.629 1069.73 287.69 1065.17 288.372C1055.77 289.779 1051.96 301.925 1053.86 314.746C1054.74 320.728 1056.89 326.886 1060.29 332.129L1072.02 325.349C1069.25 321.395 1067.39 316.651 1066.81 312.734C1066.2 308.603 1067.04 305.42 1069.6 305.036C1071.45 304.759 1072.81 306.084 1073.23 308.933L1075.01 320.97L1087.12 319.158L1085.13 305.696C1084.73 302.99 1085.11 300.675 1087.39 300.334C1090.45 299.875 1092.46 303.58 1093.22 308.779C1093.87 313.124 1093.65 318.544 1092.43 323.604L1104.77 326.78C1106.76 319.566 1107.04 312.099 1106.04 305.404C1104.05 291.942 1096.84 281.591 1087.16 283.041C1081.82 283.841 1077.88 287.707 1076.52 293.297ZM1061.8 253.286L1063.32 263.613L1048.02 265.905L1050.46 282.429L1100.3 274.967L1096.65 250.252C1094.7 237.076 1087.26 229.599 1075.37 231.379C1064.33 233.031 1060 241.106 1061.8 253.286ZM1092.78 224.113L1090.34 207.589L1040.49 215.051L1042.94 231.575L1092.78 224.113ZM1085.07 253.151L1086.11 260.202L1075.07 261.854L1074.03 254.803C1073.54 251.456 1074.38 248.781 1078.15 248.216C1082 247.641 1084.57 249.803 1085.07 253.151ZM1057.22 164.328C1054.42 160.599 1050.37 158.802 1045.6 159.517C1037.34 160.753 1033.62 168.59 1035.44 180.912L1039.18 206.197L1089.03 198.734L1085.09 172.096C1083.16 159.062 1076.46 152.639 1067.63 153.961C1061.86 154.825 1058.41 158.545 1057.22 164.328ZM1048.49 187.914L1047.43 180.791C1047.01 177.942 1048.17 176.458 1050.6 176.095C1053.02 175.733 1054.42 176.833 1054.84 179.682L1055.89 186.805L1048.49 187.914ZM1073.45 174.639L1074.83 183.969L1067 185.142L1065.62 175.811C1065.21 173.034 1066.29 171.489 1068.85 171.105C1071.42 170.721 1073.04 171.861 1073.45 174.639ZM1042.69 124.121L1044.22 134.449L1028.91 136.741L1031.35 153.265L1081.2 145.803L1077.54 121.088C1075.59 107.911 1068.15 100.434 1056.26 102.214C1045.22 103.867 1040.89 111.942 1042.69 124.121ZM1073.67 94.9482L1071.23 78.4241L1021.38 85.8864L1023.83 102.411L1073.67 94.9482ZM1065.96 123.986L1067 131.038L1055.96 132.69L1054.92 125.639C1054.43 122.291 1055.27 119.617 1059.04 119.052C1062.89 118.476 1065.46 120.639 1065.96 123.986Z" fill="#208359"/>
<path opacity="0.1" d="M1521.74 344.073C1519.34 327.834 1506.61 317.581 1491.52 319.841C1476.42 322.101 1467.22 335.638 1469.62 351.877C1472.02 368.116 1484.75 378.369 1499.84 376.109C1514.94 373.849 1524.14 360.313 1521.74 344.073ZM1508.14 346.109C1509.06 352.306 1505.1 357.995 1497.33 359.157C1489.57 360.319 1484.14 356.037 1483.22 349.841C1482.3 343.644 1486.26 337.955 1494.03 336.793C1501.79 335.631 1507.22 339.913 1508.14 346.109ZM1459.52 275.768L1466.29 321.495L1479.32 319.544L1477.16 304.943L1513.97 299.431L1511.53 282.907L1474.71 288.419L1472.55 273.817L1459.52 275.768ZM1477.69 233.239C1474.96 229.57 1470.89 227.631 1466.33 228.314C1456.93 229.721 1453.12 241.866 1455.02 254.687C1455.91 260.67 1458.05 266.828 1461.45 272.071L1473.18 265.29C1470.42 261.337 1468.55 256.593 1467.97 252.675C1467.36 248.544 1468.2 245.361 1470.76 244.977C1472.61 244.7 1473.97 246.025 1474.4 248.874L1476.18 260.911L1488.28 259.099L1486.29 245.638C1485.89 242.931 1486.27 240.616 1488.55 240.275C1491.61 239.817 1493.62 243.521 1494.39 248.72C1495.03 253.065 1494.81 258.485 1493.6 263.545L1505.93 266.722C1507.92 259.508 1508.2 252.04 1507.21 245.345C1505.22 231.884 1498.01 221.533 1488.32 222.983C1482.98 223.782 1479.04 227.648 1477.69 233.239ZM1462.96 193.227L1464.49 203.555L1449.18 205.847L1451.62 222.371L1501.47 214.909L1497.81 190.194C1495.86 177.017 1488.42 169.54 1476.53 171.32C1465.5 172.973 1461.16 181.048 1462.96 193.227ZM1493.94 164.054L1491.5 147.53L1441.65 154.992L1444.1 171.516L1493.94 164.054ZM1486.23 193.092L1487.27 200.143L1476.24 201.796L1475.19 194.745C1474.7 191.397 1475.54 188.723 1479.31 188.158C1483.16 187.582 1485.74 189.745 1486.23 193.092ZM1458.39 104.269C1455.58 100.54 1451.53 98.7438 1446.76 99.4581C1438.5 100.695 1434.78 108.531 1436.6 120.853L1440.35 146.138L1490.19 138.676L1486.25 112.038C1484.32 99.0036 1477.62 92.5809 1468.79 93.9028C1463.02 94.7663 1459.57 98.4865 1458.39 104.269ZM1449.65 127.855L1448.6 120.733C1448.17 117.884 1449.34 116.399 1451.76 116.036C1454.18 115.674 1455.58 116.775 1456 119.624L1457.05 126.746L1449.65 127.855ZM1474.62 114.58L1476 123.911L1468.16 125.083L1466.78 115.753C1466.37 112.975 1467.45 111.43 1470.02 111.046C1472.58 110.662 1474.2 111.802 1474.62 114.58ZM1443.85 64.0627L1445.38 74.3903L1430.07 76.6823L1432.51 93.2064L1482.36 85.7441L1478.7 61.0291C1476.75 47.8525 1469.31 40.3755 1457.42 42.1558C1446.39 43.8081 1442.05 51.8833 1443.85 64.0627ZM1474.84 34.8896L1472.39 18.3655L1422.55 25.8278L1424.99 42.3519L1474.84 34.8896ZM1467.12 63.9277L1468.17 70.9789L1457.13 72.6313L1456.08 65.5801C1455.59 62.2325 1456.43 59.5584 1460.21 58.9934C1464.05 58.4177 1466.63 60.5801 1467.12 63.9277Z" fill="#208359"/>
</g>
</svg>
