<svg width="36" height="36" viewBox="0 0 36 36" fill="none" xmlns="http://www.w3.org/2000/svg">
<rect width="36" height="36" transform="translate(0 -0.000488281)" fill="#7C90DD"/>
<g clip-path="url(#clip0)">
<path d="M29.6294 8.38354C29.3363 8.02502 28.8972 7.82764 28.3929 7.82764C28.1188 7.82764 27.8284 7.88531 27.53 7.99939L7.21441 15.7545C6.13628 16.1659 5.99108 16.7833 6.00042 17.1147C6.00976 17.4462 6.18975 18.0544 7.28948 18.4044C7.29607 18.4064 7.30267 18.4084 7.30926 18.4102L11.5232 19.6161L13.8022 26.1329C14.1129 27.0213 14.8104 27.5732 15.6226 27.5732C16.1348 27.5732 16.6385 27.3586 17.0794 26.9528L19.6859 24.5529L23.4665 27.597C23.4668 27.5974 23.4674 27.5975 23.4678 27.5979L23.5037 27.6268C23.507 27.6294 23.5104 27.6321 23.5137 27.6347C23.934 27.9606 24.3926 28.1328 24.8407 28.1329H24.8409C25.7163 28.1329 26.4134 27.4849 26.6164 26.4822L29.9451 10.046C30.0788 9.38623 29.9667 8.7959 29.6294 8.38354ZM12.933 19.3871L21.063 15.2337L16.0007 20.6128C15.9178 20.7009 15.859 20.8087 15.8301 20.9261L14.8539 24.8801L12.933 19.3871ZM16.1267 25.9183C16.093 25.9492 16.0591 25.9769 16.0253 26.0023L16.9309 22.3344L18.5783 23.6609L16.1267 25.9183ZM28.5669 9.76672L25.2382 26.2032C25.2062 26.3605 25.1038 26.7265 24.8407 26.7265C24.7107 26.7265 24.5474 26.6556 24.3802 26.5269L20.0962 23.0776C20.0957 23.077 20.095 23.0765 20.0942 23.0761L17.5452 21.0235L24.866 13.2446C25.1003 12.9956 25.1216 12.6142 24.9163 12.3406C24.7109 12.0671 24.3386 11.981 24.0341 12.1367L11.9935 18.2879L7.72216 17.0659L28.0315 9.31317C28.2031 9.24762 28.3228 9.23389 28.3929 9.23389C28.436 9.23389 28.5125 9.23901 28.5409 9.27399C28.5782 9.31958 28.6258 9.47504 28.5669 9.76672Z" fill="white"/>
</g>
<defs>
<clipPath id="clip0">
<rect width="24" height="24" fill="white" transform="translate(6 5.99951)"/>
</clipPath>
</defs>
</svg>
