<svg width="36" height="36" viewBox="0 0 36 36" fill="none" xmlns="http://www.w3.org/2000/svg">
<rect width="36" height="36" transform="translate(0 -0.000488281)" fill="#7C90DD"/>
<g clip-path="url(#clip0)">
<path d="M29.155 19.8926C29.871 13.8655 28.811 10.0605 26.899 8.33954L26.9 8.33854C23.814 5.39954 13.392 4.96453 9.70002 8.47054C8.04202 10.1855 7.45802 12.7025 7.39402 15.8185C7.33002 18.9356 7.25402 24.7746 12.695 26.3586H12.7L12.695 28.7776C12.695 28.7776 12.658 29.7576 13.284 29.9546C14 30.1866 14.324 29.7316 16.551 27.0716C20.275 27.3946 23.135 26.6546 23.46 26.5466C24.212 26.2946 28.467 25.7316 29.155 19.8926ZM16.918 25.3696C16.918 25.3696 14.561 28.3086 13.828 29.0716C13.588 29.3196 13.325 29.2966 13.329 28.8046C13.329 28.4816 13.347 24.7886 13.347 24.7886C8.73402 23.4666 9.00602 18.4946 9.05602 15.8935C9.10602 13.2915 9.58202 11.1605 10.986 9.72554C14.225 6.68854 23.362 7.36754 25.69 9.55554C28.536 12.0785 27.523 19.2066 27.529 19.4496C26.944 24.3236 23.496 24.6326 22.862 24.8436C22.591 24.9336 20.076 25.5806 16.918 25.3696Z" fill="white"/>
<path d="M18.2219 10.2964C17.8369 10.2964 17.8369 10.8964 18.2219 10.9014C21.2089 10.9244 23.6689 13.0064 23.6959 16.8254C23.6959 17.2284 24.2859 17.2234 24.2809 16.8204H24.2799C24.2479 12.7054 21.5619 10.3194 18.2219 10.2964Z" fill="white"/>
<path d="M22.151 16.1925C22.142 16.5905 22.731 16.6095 22.736 16.2065C22.785 13.9375 21.386 12.0685 18.757 11.8715C18.372 11.8435 18.332 12.4485 18.716 12.4765C20.996 12.6495 22.197 14.2055 22.151 16.1925Z" fill="white"/>
<path d="M21.521 18.7736C21.027 18.4876 20.524 18.6656 20.316 18.9466L19.881 19.5096C19.66 19.7956 19.247 19.7576 19.247 19.7576C16.233 18.9606 15.427 15.8066 15.427 15.8066C15.427 15.8066 15.39 15.3796 15.666 15.1506L16.21 14.7006C16.482 14.4846 16.654 13.9646 16.377 13.4536C15.637 12.1166 15.14 11.6556 14.887 11.3016C14.621 10.9686 14.221 10.8936 13.805 11.1186H13.796C12.931 11.6246 11.984 12.5716 12.287 13.5466C12.804 14.5746 13.754 17.8516 16.782 20.3276C18.205 21.4986 20.457 22.6986 21.413 22.9756L21.422 22.9896C22.364 23.3036 23.28 22.3196 23.769 21.4286V21.4216C23.986 20.9906 23.914 20.5826 23.597 20.3156C23.035 19.7676 22.187 19.1626 21.521 18.7736Z" fill="white"/>
<path d="M19.169 14.1037C20.13 14.1597 20.596 14.6617 20.646 15.6927C20.664 16.0957 21.2491 16.0677 21.2311 15.6647C21.167 14.3187 20.465 13.5687 19.201 13.4987C18.816 13.4757 18.78 14.0807 19.169 14.1037Z" fill="white"/>
</g>
<defs>
<clipPath id="clip0">
<rect width="24" height="24" fill="white" transform="translate(6 5.99951)"/>
</clipPath>
</defs>
</svg>
