<svg width="36" height="36" viewBox="0 0 36 36" fill="none" xmlns="http://www.w3.org/2000/svg">
<rect width="36" height="36" fill="white"/>
<g clip-path="url(#clip0)">
<path d="M18.145 25.5C21.617 25.5 20.379 23.302 20.647 22.67C20.643 22.198 20.639 21.744 20.655 21.468C20.875 21.53 21.394 21.793 22.466 22.835C24.121 24.505 24.544 25.5 25.881 25.5H28.342C29.122 25.5 29.528 25.177 29.731 24.906C29.927 24.644 30.119 24.184 29.909 23.468C29.36 21.744 26.158 18.767 25.959 18.453C25.989 18.395 26.037 18.318 26.062 18.278H26.06C26.692 17.443 29.104 13.829 29.459 12.383C29.46 12.381 29.461 12.378 29.461 12.375C29.653 11.715 29.477 11.287 29.295 11.045C29.021 10.683 28.585 10.5 27.996 10.5H25.535C24.711 10.5 24.086 10.915 23.77 11.672C23.241 13.017 21.755 15.783 20.641 16.762C20.607 15.375 20.63 14.316 20.648 13.529C20.684 11.994 20.8 10.5 19.207 10.5H15.339C14.341 10.5 13.386 11.59 14.42 12.884C15.324 14.018 14.745 14.65 14.94 17.796C14.18 16.981 12.828 14.78 11.872 11.967C11.604 11.206 11.198 10.501 10.055 10.501H7.594C6.596 10.501 6 11.045 6 11.956C6 14.002 10.529 25.5 18.145 25.5ZM10.055 12.001C10.272 12.001 10.294 12.001 10.455 12.458C11.434 15.341 13.63 19.607 15.234 19.607C16.439 19.607 16.439 18.372 16.439 17.907L16.438 14.205C16.372 12.98 15.926 12.37 15.633 12L19.141 12.004C19.143 12.021 19.121 16.099 19.151 17.087C19.151 18.49 20.265 19.294 22.004 17.534C23.839 15.463 25.108 12.367 25.159 12.241C25.234 12.061 25.299 12 25.535 12H27.996H28.006C28.005 12.003 28.005 12.006 28.004 12.009C27.779 13.059 25.558 16.405 24.815 17.444C24.803 17.46 24.792 17.477 24.781 17.494C24.454 18.028 24.188 18.618 24.826 19.448H24.827C24.885 19.518 25.036 19.682 25.256 19.91C25.94 20.616 28.286 23.03 28.494 23.99C28.356 24.012 28.206 23.996 25.881 24.001C25.386 24.001 24.999 23.261 23.522 21.771C22.194 20.479 21.332 19.951 20.547 19.951C19.023 19.951 19.134 21.188 19.148 22.684C19.153 24.306 19.143 23.793 19.154 23.895C19.065 23.93 18.81 24 18.145 24C11.8 24 7.668 13.929 7.509 12.004C7.564 11.999 8.321 12.002 10.055 12.001Z" fill="#434758"/>
</g>
<defs>
<clipPath id="clip0">
<rect width="24" height="24" fill="white" transform="translate(6 6)"/>
</clipPath>
</defs>
</svg>
