<svg width="36" height="36" viewBox="0 0 36 36" fill="none" xmlns="http://www.w3.org/2000/svg">
<rect width="36" height="36" transform="translate(0 -0.000488281)" fill="#7C90DD"/>
<g clip-path="url(#clip0)">
<path fill-rule="evenodd" clip-rule="evenodd" d="M25.9589 10.0076C23.854 7.90015 21.0545 6.73903 18.0721 6.73779C11.9267 6.73779 6.92513 11.7392 6.92265 17.8863C6.92183 19.8513 7.43517 21.7696 8.41089 23.4604L6.82913 29.2378L12.7396 27.6873C14.3682 28.5757 16.2017 29.0439 18.0676 29.0444H18.0723C24.2171 29.0444 29.2191 24.0426 29.2215 17.8952C29.2227 14.916 28.0641 12.1149 25.9589 10.0076ZM18.0721 27.1615H18.0683C16.4055 27.1608 14.7747 26.714 13.3517 25.8698L13.0135 25.6689L9.50609 26.589L10.4423 23.1694L10.2218 22.8188C9.29419 21.3433 8.80434 19.6379 8.80516 17.887C8.80708 12.7777 12.9643 8.62085 18.0758 8.62085C20.5511 8.62167 22.8778 9.58682 24.6274 11.3385C26.377 13.0901 27.3399 15.4184 27.3391 17.8945C27.3369 23.0043 23.1799 27.1615 18.0721 27.1615ZM23.1552 20.221C22.8767 20.0815 21.507 19.4078 21.2516 19.3147C20.9964 19.2217 20.8105 19.1754 20.6249 19.4542C20.4391 19.733 19.9053 20.3606 19.7427 20.5464C19.5801 20.7323 19.4178 20.7557 19.1392 20.6161C18.8605 20.4767 17.9629 20.1824 16.8988 19.2334C16.0707 18.4947 15.5116 17.5824 15.349 17.3036C15.1867 17.0246 15.3477 16.8883 15.4713 16.7351C15.7728 16.3606 16.0748 15.968 16.1676 15.7822C16.2606 15.5962 16.2141 15.4335 16.1443 15.2941C16.0748 15.1547 15.5177 13.7835 15.2856 13.2255C15.0593 12.6825 14.8298 12.7558 14.6587 12.7473C14.4964 12.7392 14.3105 12.7376 14.1247 12.7376C13.9391 12.7376 13.6372 12.8072 13.3818 13.0862C13.1265 13.3652 12.4069 14.039 12.4069 15.4103C12.4069 16.7815 13.4051 18.1062 13.5444 18.2921C13.6836 18.4781 15.5089 21.2919 18.3034 22.4985C18.9681 22.7858 19.4869 22.957 19.8916 23.0854C20.559 23.2975 21.1662 23.2675 21.6463 23.1959C22.1816 23.1158 23.2943 22.5219 23.5267 21.8712C23.7588 21.2204 23.7588 20.6627 23.689 20.5464C23.6195 20.4302 23.4337 20.3606 23.1552 20.221Z" fill="white"/>
</g>
<defs>
<clipPath id="clip0">
<rect width="24" height="24" fill="white" transform="translate(6 5.99951)"/>
</clipPath>
</defs>
</svg>
